<svg width="177" height="36" viewBox="0 0 177 36" fill="none" xmlns="http://www.w3.org/2000/svg">
<path d="M53.592 12.44V15.848H59.088V19.016H53.592V22.712H59.808V26H49.488V9.152H59.808V12.44H53.592ZM68.7364 22.16L71.6404 12.608H76.0084L71.2564 26H66.1924L61.4404 12.608H65.8324L68.7364 22.16ZM84.0718 26.192C82.7598 26.192 81.5758 25.912 80.5198 25.352C79.4798 24.792 78.6558 23.992 78.0478 22.952C77.4558 21.912 77.1598 20.696 77.1598 19.304C77.1598 17.928 77.4638 16.72 78.0718 15.68C78.6798 14.624 79.5118 13.816 80.5678 13.256C81.6238 12.696 82.8078 12.416 84.1198 12.416C85.4318 12.416 86.6158 12.696 87.6718 13.256C88.7278 13.816 89.5598 14.624 90.1678 15.68C90.7758 16.72 91.0798 17.928 91.0798 19.304C91.0798 20.68 90.7678 21.896 90.1438 22.952C89.5358 23.992 88.6958 24.792 87.6238 25.352C86.5678 25.912 85.3838 26.192 84.0718 26.192ZM84.0718 22.64C84.8558 22.64 85.5198 22.352 86.0638 21.776C86.6238 21.2 86.9038 20.376 86.9038 19.304C86.9038 18.232 86.6318 17.408 86.0878 16.832C85.5598 16.256 84.9038 15.968 84.1198 15.968C83.3198 15.968 82.6558 16.256 82.1278 16.832C81.5998 17.392 81.3358 18.216 81.3358 19.304C81.3358 20.376 81.5918 21.2 82.1038 21.776C82.6318 22.352 83.2878 22.64 84.0718 22.64ZM97.6011 8.24V26H93.4971V8.24H97.6011ZM114.039 12.608V26H109.935V24.176C109.519 24.768 108.951 25.248 108.231 25.616C107.527 25.968 106.743 26.144 105.879 26.144C104.855 26.144 103.951 25.92 103.167 25.472C102.383 25.008 101.775 24.344 101.343 23.48C100.911 22.616 100.695 21.6 100.695 20.432V12.608H104.775V19.88C104.775 20.776 105.007 21.472 105.471 21.968C105.935 22.464 106.559 22.712 107.343 22.712C108.143 22.712 108.775 22.464 109.239 21.968C109.703 21.472 109.935 20.776 109.935 19.88V12.608H114.039ZM125.147 26L122.579 22.28L120.419 26H115.979L120.395 19.16L115.859 12.608H120.467L123.035 16.304L125.195 12.608H129.635L125.147 19.352L129.755 26H125.147ZM131.312 13.424C131.376 11.712 131.936 10.392 132.992 9.464C134.048 8.536 135.48 8.072 137.288 8.072C138.488 8.072 139.512 8.28 140.36 8.696C141.224 9.112 141.872 9.68 142.304 10.4C142.752 11.12 142.976 11.928 142.976 12.824C142.976 13.88 142.712 14.744 142.184 15.416C141.656 16.072 141.04 16.52 140.336 16.76V16.856C141.248 17.16 141.968 17.664 142.496 18.368C143.024 19.072 143.288 19.976 143.288 21.08C143.288 22.072 143.056 22.952 142.592 23.72C142.144 24.472 141.48 25.064 140.6 25.496C139.736 25.928 138.704 26.144 137.504 26.144C135.584 26.144 134.048 25.672 132.896 24.728C131.76 23.784 131.16 22.36 131.096 20.456H135.08C135.096 21.16 135.296 21.72 135.68 22.136C136.064 22.536 136.624 22.736 137.36 22.736C137.984 22.736 138.464 22.56 138.8 22.208C139.152 21.84 139.328 21.36 139.328 20.768C139.328 20 139.08 19.448 138.584 19.112C138.104 18.76 137.328 18.584 136.256 18.584H135.488V15.248H136.256C137.072 15.248 137.728 15.112 138.224 14.84C138.736 14.552 138.992 14.048 138.992 13.328C138.992 12.752 138.832 12.304 138.512 11.984C138.192 11.664 137.752 11.504 137.192 11.504C136.584 11.504 136.128 11.688 135.824 12.056C135.536 12.424 135.368 12.88 135.32 13.424H131.312ZM154.604 13.208C154.476 12.616 154.252 12.176 153.932 11.888C153.612 11.584 153.156 11.432 152.564 11.432C151.652 11.432 150.996 11.832 150.596 12.632C150.196 13.416 149.988 14.664 149.972 16.376C150.324 15.816 150.828 15.376 151.484 15.056C152.156 14.736 152.892 14.576 153.692 14.576C155.26 14.576 156.516 15.072 157.46 16.064C158.42 17.056 158.9 18.44 158.9 20.216C158.9 21.384 158.66 22.408 158.18 23.288C157.716 24.168 157.028 24.856 156.116 25.352C155.22 25.848 154.156 26.096 152.924 26.096C150.46 26.096 148.748 25.328 147.788 23.792C146.828 22.24 146.348 20.016 146.348 17.12C146.348 14.08 146.852 11.824 147.86 10.352C148.884 8.864 150.516 8.12 152.756 8.12C153.956 8.12 154.964 8.36 155.78 8.84C156.612 9.304 157.236 9.92 157.652 10.688C158.084 11.456 158.34 12.296 158.42 13.208H154.604ZM152.708 17.816C152.02 17.816 151.444 18.024 150.98 18.44C150.532 18.84 150.308 19.416 150.308 20.168C150.308 20.936 150.516 21.536 150.932 21.968C151.364 22.4 151.972 22.616 152.756 22.616C153.46 22.616 154.012 22.408 154.412 21.992C154.828 21.56 155.036 20.976 155.036 20.24C155.036 19.488 154.836 18.896 154.436 18.464C154.036 18.032 153.46 17.816 152.708 17.816ZM161.461 17C161.461 14.248 161.989 12.08 163.045 10.496C164.117 8.912 165.837 8.12 168.205 8.12C170.573 8.12 172.285 8.912 173.341 10.496C174.413 12.08 174.949 14.248 174.949 17C174.949 19.784 174.413 21.968 173.341 23.552C172.285 25.136 170.573 25.928 168.205 25.928C165.837 25.928 164.117 25.136 163.045 23.552C161.989 21.968 161.461 19.784 161.461 17ZM170.917 17C170.917 15.384 170.741 14.144 170.389 13.28C170.037 12.4 169.309 11.96 168.205 11.96C167.101 11.96 166.373 12.4 166.021 13.28C165.669 14.144 165.493 15.384 165.493 17C165.493 18.088 165.557 18.992 165.685 19.712C165.813 20.416 166.069 20.992 166.453 21.44C166.853 21.872 167.437 22.088 168.205 22.088C168.973 22.088 169.549 21.872 169.933 21.44C170.333 20.992 170.597 20.416 170.725 19.712C170.853 18.992 170.917 18.088 170.917 17Z" fill="white"/>
<path d="M0 4.61253V11.1483H6.49923C4.335 8.97191 2.1675 6.79222 0 4.61253ZM34 30.3842V23.8484H27.5008C29.6683 26.0281 31.8358 28.2078 34 30.3842ZM10.7656 0H4.03423C3.91327 0 3.79558 0.00657524 3.67462 0.0197257C6.03827 2.42298 8.40192 4.82951 10.7623 7.23276V0H10.7656ZM29.969 0H16.5292V16.8293H0V30.9431C0 33.1819 1.80462 35 4.03423 35H17.474V18.1707H34V4.05692C34 1.81805 32.1954 0 29.9658 0H29.969ZM23.2377 34.9967H29.969C30.1325 34.9967 30.296 34.9836 30.4562 34.9638C28.05 32.5639 25.6438 30.1639 23.241 27.7639V34.9967H23.2377Z" fill="white"/>
</svg>
